<svg xmlns="http://www.w3.org/2000/svg" x="0px" y="0px" width="64" height="64" viewBox="0 0 172 172" style=" fill:#000000;"><defs><linearGradient x1="102.125" y1="12.31681" x2="102.125" y2="157.92556" gradientUnits="userSpaceOnUse" id="color-1_48112_gr1"><stop offset="0" stop-color="#7de3c3"></stop><stop offset="1" stop-color="#0ba360"></stop></linearGradient><linearGradient x1="87.14219" y1="12.31681" x2="87.14219" y2="157.92556" gradientUnits="userSpaceOnUse" id="color-2_48112_gr2"><stop offset="0" stop-color="#7de3c3"></stop><stop offset="1" stop-color="#0ba360"></stop></linearGradient><linearGradient x1="52.07838" y1="69.96906" x2="52.07838" y2="139.64519" gradientUnits="userSpaceOnUse" id="color-3_48112_gr3"><stop offset="0" stop-color="#d9f7ee"></stop><stop offset="1" stop-color="#2df19b"></stop></linearGradient></defs><g fill="none" fill-rule="nonzero" stroke="none" stroke-width="1" stroke-linecap="butt" stroke-linejoin="miter" stroke-miterlimit="10" stroke-dasharray="" stroke-dashoffset="0" font-family="none" font-weight="none" font-size="none" text-anchor="none" style="mix-blend-mode: normal"><path d="M0,172v-172h172v172z" fill="none"></path><g><path d="M112.69225,17.19731c-0.87344,6.31831 -4.58219,11.44606 -6.45269,13.68475c-3.68725,4.429 -9.23156,7.71581 -14.72213,8.92519c0.6665,-5.09819 3.60931,-10.09694 6.65694,-13.55306c3.55556,-4.01512 9.10256,-7.39062 14.51788,-9.05687M117.95706,10.75c-8.342,0.53481 -18.10569,5.504 -23.80587,11.93788c-5.16806,5.86144 -9.45463,14.56625 -7.78569,22.98888c0.23112,0.00806 0.46225,0.01075 0.69606,0.01075c8.89025,0 17.97669,-4.96381 23.30869,-11.36544c5.117,-6.12212 8.99775,-14.76781 7.58681,-23.57206z" fill="url(#color-1_48112_gr1)"></path><path d="M118.7015,56.44825c6.56825,0 13.38912,2.73856 19.09469,7.52231c-8.88219,6.78056 -14.17119,17.26719 -14.17119,28.74819c0,13.63638 7.59756,25.90481 19.393,32.09681c-1.89469,4.0205 -4.09306,7.87169 -6.56019,11.49175c-5.34813,7.82062 -12.53181,16.80494 -20.69912,16.87212h-0.21231c-3.31638,0 -5.49325,-0.8385 -8.51131,-1.9995c-3.85656,-1.4835 -8.65644,-3.32981 -16.58725,-3.37013l-0.45419,0.00806l-0.43269,-0.00537c-7.87975,0.03763 -12.67963,1.88662 -16.5335,3.37013c-3.01538,1.161 -5.19494,1.9995 -8.51131,1.9995h-0.22575c-8.15387,-0.06719 -15.33756,-9.0515 -20.68031,-16.86675c-16.942,-24.86475 -16.95812,-51.79888 -8.36619,-64.52419c6.27531,-9.31756 16.52813,-15.34025 26.1225,-15.34025c5.15731,0 9.3525,1.28194 13.79763,2.63913c4.38062,1.33838 8.91712,2.72244 14.19537,2.72244h0.67188h0.67188c5.27825,0 9.81475,-1.38406 14.20075,-2.72512c4.44244,-1.35719 8.64031,-2.63912 13.79762,-2.63912M118.7015,51.07325c-11.37619,0 -18.5975,5.36425 -27.99837,5.36425c-0.25263,0 -0.67187,0 -0.67187,0c0,0 -0.41925,0 -0.67187,0c-9.40087,0 -16.62219,-5.36425 -27.99837,-5.36425c-11.16656,0 -23.06413,6.55212 -30.57837,17.71331c-10.62638,15.738 -8.815,45.31125 8.385,70.55225c6.14631,8.98969 14.362,19.12694 25.07975,19.21294c0.09137,0 0.18006,0.00269 0.26875,0.00269c9.33637,0 12.255,-5.30513 25.07169,-5.36694c0.00806,0 0.01881,0 0.02687,0c0.14513,0 0.27412,0.00806 0.41656,0.00806c0.14244,0 0.27144,-0.00806 0.41656,-0.00806c0.00806,0 0.01881,0 0.02687,0c12.81669,0.06181 15.738,5.36694 25.07169,5.36694c0.08869,0 0.18006,0 0.26875,-0.00269c10.71775,-0.08869 18.93344,-10.22325 25.07975,-19.21294c3.83506,-5.62763 6.86388,-11.47294 9.202,-17.33169c-12.255,-4.10112 -21.09688,-15.652 -21.09688,-29.28837c0,-12.212 7.10038,-22.73625 17.38006,-27.7565c-7.47394,-8.815 -17.85844,-13.889 -27.67856,-13.889z" fill="url(#color-2_48112_gr2)"></path><path d="M60.071,139.64519c-2.365,-2.33006 -4.91544,-5.48788 -7.57875,-9.38206c-7.74,-11.36275 -12.17975,-24.55569 -12.17975,-36.20062c0,-9.45463 4.43437,-18.01162 12.48881,-24.09344l3.23844,4.28925c-6.67575,5.04175 -10.35225,12.07494 -10.35225,19.80419c0,10.59144 4.09844,22.67981 11.24719,33.17181c2.46444,3.60662 4.79181,6.49569 6.90956,8.58388z" fill="url(#color-3_48112_gr3)"></path></g></g></svg>